<?xml version="1.0" encoding="UTF-8"?>
<svg id="Capa_1" data-name="Capa 1" xmlns="http://www.w3.org/2000/svg" viewBox="0 0 1600 368.32">
  <defs>
    <style>
      .cls-1 {
        fill: #030406;
      }

      .cls-2 {
        fill: #0165a2;
      }

      .cls-3 {
        fill: #fefefe;
      }
    </style>
  </defs>
  <g>
    <path class="cls-2" d="M1005.82,295.12c-5.83,2.74-11.19,6.11-17.45,6.1l-48.7-.09c-12.8-.02-23.21-7.11-31.08-17.27-16.27,10.43-34.02,17.04-53.37,17.08l-106.24.24c-22.21.05-40.78-23.15-34.07-45.03l52.34-170.72c-5.1-12.3-5.34-26.12,1.71-37.59,4.85-7.89,13.37-11.6,22.65-12.58l107.36.07c25.33.02,50.27,9.91,63.47,32.15l5.31-14.53c3.81-10.43,14.47-17.43,26.03-17.47l40.46-.13c6.85-.02,12.82,2.8,18.83,5.56,5.36-3.2,10.97-5.52,17.37-5.52l51.09.02c7.34,0,14.55,2.22,20.38,6.46,13.76,9.98,18.75,27.13,14.7,43.65l30.91.15c12.74.06,24,6.2,31.24,17.04,16.6-12.35,36.04-17.99,56.79-19.59,20.46-1.58,40.42-1.16,60.2,6.12l11.72-33.28c4.54-12.89,16.62-21.42,30.53-21.51,11.9-.07,23.34-.62,35.22.38,3.41.29,7.05,2.2,10.55,3.03,7.99,1.89,13.4,8.79,16.91,15.86,5.17,10.43,4.58,21.65.87,33.26,11.36-.95,21.51-1.46,32.29-1.38l40.4.3c18.98.14,32.78,16.93,30.16,35.75-1.49,10.69-5.77,20.26-9.43,30.39-3.52,9.72-10.19,17.49-20.31,21.9,14.49,21.01,13.33,42.97,5.87,65.95-13.38,41.26-49.89,61.64-92.49,61.76l-60.57.17c-17.27.05-30.78-9.85-37.05-26.51-17.21,23.53-43.41,26.04-69.41,28.32-26.8-.21-56.1.1-79-16.96-6.09,8.71-14.39,14.15-24.67,14.28l-46.46.59-21.31-5.58c-6.11-1.6-12.76,5.69-20.2,5.64l-44.71-.3c-6.73-.04-12.71-2.77-18.84-6.18ZM1088.26,273.34c5.35,8.53,12.01,13.58,21.07,14.05,15.63.81,31.22.31,46.99.1,6.37-.08,11.93-4.1,14.53-8.56,8.52-14.65-7.11-20.11,1.38-29.52,3.06,7.07,4.7,13.39,9.23,18.93,8.17,10,19.85,15.88,32.99,18.37,24.2,4.58,49.16,4.14,73.46-.4,13.43-2.5,25.63-9.53,32.66-20.8,5.78-9.25,7.13-19.69,11.12-29.49,2.9-7.13,2.18-14.91-.51-21.62,14.16-7.67,18.49-14.95,24.32-30.2,5.11-13.35,8.69-26.89,8.16-41.22,8.49.42,15.46.53,22.76-.5-9.65,26.03-14.22,53.38,13.34,68.26,5.99,3.23,12.34,5.06,17.71,9.77-8.74-.27-18.97,1.78-26.73-.72-5.73-6.05-11.42-10.63-20.02-9.24-7.76,1.26-12.82,6.02-15.6,14.11l-11.39,33.12c-4.17,12.12,2.08,24.83,14.12,29.03,7.58,2.65,15.32,1.46,23.34,1.43l43.72-.12c16.91-.05,33.59-2.44,48.41-10.44,17.91-9.67,29.73-26.1,35.53-45.27,6.86-22.69,5.47-47.84-16.52-61.19l-12.4-7.52,22.72-.52c7.61-.17,15.3-6.23,18.37-13.3,4.07-9.38,7.52-18.27,10.15-28.2,2.68-10.08-4.04-21.54-15.08-21.87-21.91-.65-43.45-.74-65.32.03-10.59.38-19.97,2.52-30.02,6.03l9.02-25.32c4.15-11.65.34-28.85-13.65-31.43-13.44-2.48-27.49-.96-41.15-.67-6.95.15-12.56,6.93-15.02,12.65-4.76,11.08-7.94,21.91-11.36,33.41-.73,2.46.07,4.75.62,7.53.46,2.27-3.36,7.28-5.99,5.7-9.24-5.56-17.99-8.77-28.71-10.11-23.01-2.89-46.66-1.97-68.8,5.7-14.57,5.05-25.42,14.98-35.86,26.09,1.75-8.05,1.38-14.66-2.96-21.09-3.1-4.59-9.26-8.76-16.23-8.78l-51.45-.16c2.15-9.13,5.32-15.2,5.82-23.49.69-11.6-6.43-26.4-19.22-26.42l-57.59-.06c-6.43,0-10.08,7.22-13.3,11.3-4.23-5.09-9.4-11.41-16.34-11.47l-39.44-.37c-21.47-.2-20.17,13.76-26.75,33.44-1.91,5.73-1.78,10.8-.58,16.86-5.47-.33-9.45,1.26-14.64,3.04-.62-8.7-1.32-16.64-4.58-24.37-8.59-20.4-31.31-28.77-52.57-28.68l-111.4.43c-7.2.03-10.64,9.03-11.78,13.72-1.55,6.39,1,13.7,4.98,18.4.09,5.84-2.99,11.57-4.71,17.15l-31.16,100.65-17.93,56.54c-2.41,7.61-1.55,15.38,3.33,21.9,3.58,4.78,10.07,9.98,17.61,9.95l103.25-.39c11.17-.04,21.76-2.59,32.07-6.05,12.77-4.29,22.41-13.07,31.78-22.94-1.24,15.03,6.97,27.5,21.81,28.75,16.64,1.4,33.51.19,50.55.24,8.13.03,12.57-6.88,16.09-14.16,4.29,9.55,12.41,14.61,22.31,14.55l43.6-.27c8.9-.06,14.52-6.21,17.86-14.33Z"/>
    <path class="cls-1" d="M1088.26,273.34c-3.35,8.13-8.96,14.28-17.86,14.33l-43.6.27c-9.9.06-18.03-5-22.31-14.55-3.52,7.28-7.96,14.19-16.09,14.16-17.04-.06-33.91,1.15-50.55-.24-14.83-1.25-23.04-13.72-21.81-28.75-9.37,9.87-19.01,18.65-31.78,22.94-10.31,3.46-20.9,6.01-32.07,6.05l-103.25.39c-7.54.03-14.03-5.17-17.61-9.95-4.88-6.52-5.74-14.29-3.33-21.9l17.93-56.54,31.16-100.65c1.73-5.58,4.81-11.31,4.71-17.15-3.98-4.7-6.53-12.01-4.98-18.4,1.14-4.7,4.58-13.7,11.78-13.72l111.4-.43c21.27-.08,43.99,8.28,52.57,28.68,3.25,7.73,3.96,15.67,4.58,24.37,5.2-1.78,9.17-3.37,14.64-3.04-1.2-6.06-1.34-11.14.58-16.86,6.58-19.68,5.28-33.64,26.75-33.44l39.44.37c6.94.07,12.11,6.38,16.34,11.47,3.22-4.08,6.88-11.31,13.3-11.3l57.59.06c12.79.01,19.91,14.82,19.22,26.42-.49,8.29-3.67,14.36-5.82,23.49l51.45.16c6.97.02,13.13,4.19,16.23,8.78,4.34,6.43,4.71,13.04,2.96,21.09,10.44-11.11,21.29-21.04,35.86-26.09,22.14-7.67,45.79-8.59,68.8-5.7,10.71,1.35,19.47,4.56,28.71,10.11,2.63,1.58,6.44-3.43,5.99-5.7-.56-2.78-1.36-5.07-.62-7.53,3.43-11.5,6.6-22.33,11.36-33.41,2.46-5.73,8.07-12.51,15.02-12.65,13.65-.29,27.71-1.81,41.15.67,13.99,2.58,17.8,19.78,13.65,31.43l-9.02,25.32c10.05-3.51,19.43-5.65,30.02-6.03,21.87-.78,43.42-.69,65.32-.03,11.04.33,17.76,11.78,15.08,21.87-2.64,9.93-6.09,18.82-10.15,28.2-3.06,7.07-10.75,13.13-18.37,13.3l-22.72.52,12.4,7.52c21.98,13.35,23.38,38.5,16.52,61.19-5.8,19.17-17.62,35.6-35.53,45.27-14.83,8.01-31.51,10.4-48.41,10.44l-43.72.12c-8.02.02-15.76,1.21-23.34-1.43-12.03-4.2-18.28-16.91-14.12-29.03l11.39-33.12c2.78-8.09,7.85-12.85,15.6-14.11,8.6-1.39,14.28,3.18,20.02,9.24,7.76,2.5,17.99.44,26.73.72-5.37-4.71-11.72-6.54-17.71-9.77-27.57-14.88-22.99-42.23-13.34-68.26-7.31,1.03-14.27.92-22.76.5.53,14.34-3.05,27.87-8.16,41.22-5.83,15.24-10.16,22.52-24.32,30.2,2.7,6.71,3.41,14.49.51,21.62-3.98,9.8-5.34,20.23-11.12,29.49-7.04,11.27-19.24,18.29-32.66,20.8-24.3,4.53-49.26,4.98-73.46.4-13.13-2.49-24.82-8.37-32.99-18.37-4.53-5.54-6.17-11.86-9.23-18.93-8.49,9.41,7.15,14.87-1.38,29.52-2.6,4.46-8.15,8.47-14.53,8.56-15.77.21-31.36.71-46.99-.1-9.06-.47-15.72-5.51-21.07-14.05ZM1356.99,126.95c18.66,3.18,36.84,3.55,45.61-15.92,5.87-13.03,9.72-26.5,14.23-40.22.69-2.09-.28-4.73-1.3-6.09-.71-.94-2.62-1.53-4.5-1.54l-30.9-.21c-3.35-.02-5.93,1.77-6.97,4.91l-9.52,28.68c-2.85,8.58,12.36,4.18,17.25,6.59-4.73,23.33-28.83.21-23.9,23.8ZM904.14,159.42c9.25-4.45,17.48-8.03,23.2-15.91,9.47-13.07,14.74-28.87,15.09-45.01.33-14.14-6.91-26.13-20.02-31.04-4.96-1.86-10.24-3.42-15.97-3.43l-112.73-.09c-2.58,0-2.84,3.42-2.88,4.99-.06,2.31,9.53,4.61,6.07,15.77l-55.06,177.91c-.82,2.64-.03,5.74,1.09,7.27,1,1.37,3.6,3.46,6.22,3.45l99.77-.26c21.73-.06,42.26-7.15,55.6-24.46,16.74-21.74,36.47-77.04-.39-89.2ZM1029.44,99.6c3.95-.17,6.92-2.85,7.78-5.86,1.86-6.54,4.24-12.03,5.78-18.89.7-3.11-.63-10.02-4.61-10.46-13.55-1.51-26.75.21-40.37-.57-2.78-.16-4.99,1.99-5.84,4.34-2.62,7.22-5.02,14.19-6.95,21.71-.69,2.67.08,5.48,1.68,7.16,1.19,1.25,3.37,2.56,5.83,2.58,12.2.07,23.93.56,36.71,0ZM1156.32,272.31c2.37-.02,2.49-3.9,2.37-5.15-.17-1.92-6.65-4.17-3.75-13.25l15.63-49.08c2.7-8.48,3.13-18.13-2.47-25.3-5.47-7-14.18-8.32-22.9-10.59l49.18-43.2c1.8-1.58,2.39-4.82,2.44-6.6.05-1.62-1.35-5-4-5l-45.69-.09c-2,0-2.67,2.87-2.61,4,.06,1.04.57,2.32,1.81,3.52,1.71,2.88.24,6.63-2.43,8.96l-42.42,37.18,28.81-90.61c1.23-3.87.02-12.58-4.59-12.63l-53.16-.58c-2.55-.03-3.14,3.39-2.9,4.91.32,2.03,8.58,3.2,5.43,12.9l-27.91,85.99-30.03,94.41c-.99,3.12.19,6.37,1.94,8.45,1.27,1.52,3.8,2.67,6.63,2.64l42.63-.47c3.01-.03,4.61-1.43,5.4-3.75,1.94-5.63-6.72-1.87-1.9-15.99l15.41-45.23c2.37-6.96,7.79-10.22,15.18-9.56,3.55.32,7.07.24,9.58,2.79,5.67,5.77,2.94,15.56.43,23.39l-11.47,35.73c-1.05,3.26-.41,6.87,1.56,9.06,1.47,1.63,4.51,3.65,7.49,3.62l46.31-.48ZM1003.23,252.03l20.6-60.75,30.12-93c1.93-5.97,3.48-11.33,5.72-17.1.35-.89-.41-1.94-.83-2.24-4.31-3.15-2.57,26.41-19.89,34.24,3.21,7.39,3.38,14.38,1.02,21.65l-22.16,68.46-14.57,48.74ZM1256.1,235.1c-7.02-1.02-13.64-6.21-14.16-13.29-.51-6.81,1.16-14.04,4.75-19.49,1.72-1.55,5.84-1.22,8.13-1.23l64.66-.22c6.37-.02,12.41-2.6,15.6-8.33,9.82-17.66,21.95-49.22,7.06-66.84-16.95-20.07-65.63-17.09-89.2-8.91-16.93,5.87-29.83,18.61-38.52,34.32-14.4,26.06-23.57,54.87-28.05,84.2-2.69,17.64,7.37,31.26,23.64,35.62,22.72,6.08,60.53,6.2,82.67-1.24,8.57-2.88,14.33-8.67,17.53-17.02,3.69-9.63,7.36-19.37,8.98-29.67-.71-2.01-5.03-.78-6.34.69-11.95,13.36-41.14,13.68-56.76,11.41ZM986.34,272.46c2.72-.14,3.65-2.83,3.72-4.3.2-3.79-6.8-4.44-3.83-13.74l40.88-128.06c1.05-3.28-.04-6.69-1.55-8.99-1.24-1.89-4.05-3.48-7.26-3.48l-46.9-.05c-1.83,0-3.54.89-4.13,2.04-3.77,7.4,8.3,3.76,4.39,15.99l-39.85,124.73c-1.33,4.18-1.98,8.75-.02,12.49,1.37,2.62,5.71,3.97,8.76,4.04,15.36.37,30.11.17,45.78-.66ZM1435,272.98c11.25-.07,21.35-3.55,30.62-8.09,9.18-4.5,16.06-11.77,21.37-20.27,11.43-18.25,20.2-51.67-5.54-63.6l-32.46-15.05c-2.73-1.27-4.86-3.95-4.97-6.46-.33-8.18,14.91-11.15,22.35-11.22l35.03-.33c4.15-.04,7.26-5.64,8.29-9.13,2.53-8.55,6.54-15.45,8.32-24.79h-60.1c-8.81,0-17.28,1.4-25.47,3.72-25.03,7.09-36.24,33.95-39.16,57.21-1.19,9.49,2.9,17.1,10.82,21.85,10.6,6.36,21.97,10.49,33.05,15.9,3.2,1.56,5.58,4.13,6.63,6.77,1.19,3,1.04,6.65-1.46,9.36-4.23,4.58-10.78,6.21-17.04,6.22l-35.75.05c-12.32.02-10.54-11.03-16.17-10.04-1.51.27-3.01,1.69-3.73,3.54-4.67,12-8.71,23.77-12.47,36.22-1.2,3.95,2.53,8.64,6.92,8.61l70.92-.46ZM949.26,153.26l6.66-19.33c1.02-2.95-.18-6.8-3.5-6.78-4.82,13.16-11.12,25.45-21.87,34.71,4.49,7,6.15,13.45,8.75,21.26,4.4-10.13,6.42-19.63,9.95-29.86ZM1185.07,180.63c5.08-14.78,10.98-27.2,17.63-41.18l-29.7,24.82c5.63,5.16,8.8,10.19,12.07,16.36ZM1296.77,215.88l-39.55-.25c-1.09,1.22-.81,5.2.89,5.42,6.65.88,36.05.74,38.66-5.18Z"/>
    <path class="cls-3" d="M1156.32,272.31l-46.31.48c-2.97.03-6.02-2-7.49-3.62-1.97-2.19-2.61-5.8-1.56-9.06l11.47-35.73c2.51-7.83,5.24-17.62-.43-23.39-2.5-2.54-6.03-2.47-9.58-2.79-7.39-.67-12.81,2.6-15.18,9.56l-15.41,45.23c-4.81,14.12,3.84,10.36,1.9,15.99-.8,2.32-2.39,3.72-5.4,3.75l-42.63.47c-2.83.03-5.36-1.12-6.63-2.64-1.74-2.08-2.93-5.33-1.94-8.45l30.03-94.41,27.91-85.99c3.15-9.7-5.11-10.86-5.43-12.9-.24-1.52.36-4.94,2.9-4.91l53.16.58c4.62.05,5.82,8.76,4.59,12.63l-28.81,90.61,42.42-37.18c2.66-2.34,4.13-6.09,2.43-8.96-1.24-1.19-1.76-2.47-1.81-3.52-.06-1.13.6-4,2.61-4l45.69.09c2.66,0,4.05,3.39,4,5-.05,1.78-.64,5.02-2.44,6.6l-49.18,43.2c8.72,2.27,17.42,3.59,22.9,10.59,5.6,7.17,5.17,16.82,2.47,25.3l-15.63,49.08c-2.89,9.08,3.58,11.33,3.75,13.25.11,1.26,0,5.13-2.37,5.15Z"/>
    <path class="cls-3" d="M1435,272.98l-70.92.46c-4.39.03-8.12-4.66-6.92-8.61,3.76-12.45,7.8-24.22,12.47-36.22.72-1.85,2.21-3.28,3.73-3.54,5.63-.99,3.85,10.06,16.17,10.04l35.75-.05c6.27,0,12.81-1.63,17.04-6.22,2.5-2.71,2.65-6.36,1.46-9.36-1.05-2.64-3.43-5.2-6.63-6.77-11.08-5.41-22.45-9.54-33.05-15.9-7.92-4.75-12.01-12.35-10.82-21.85,2.92-23.26,14.13-50.12,39.16-57.21,8.18-2.32,16.66-3.72,25.47-3.72h60.1c-1.78,9.34-5.79,16.24-8.32,24.8-1.03,3.5-4.14,9.09-8.29,9.13l-35.03.33c-7.44.07-22.68,3.04-22.35,11.22.1,2.51,2.24,5.19,4.97,6.46l32.46,15.05c25.74,11.93,16.97,45.34,5.54,63.6-5.32,8.5-12.19,15.78-21.37,20.27-9.27,4.54-19.37,8.02-30.62,8.09Z"/>
    <path class="cls-3" d="M986.34,272.46c-15.67.83-30.42,1.03-45.78.66-3.05-.07-7.39-1.42-8.76-4.04-1.96-3.74-1.31-8.31.02-12.49l39.85-124.73c3.91-12.23-8.16-8.59-4.39-15.99.58-1.15,2.3-2.04,4.13-2.04l46.9.05c3.21,0,6.02,1.59,7.26,3.48,1.5,2.3,2.59,5.71,1.55,8.99l-40.88,128.06c-2.97,9.3,4.03,9.95,3.83,13.74-.08,1.48-1,4.16-3.72,4.3Z"/>
    <path class="cls-3" d="M1356.99,126.95c-4.94-23.59,19.17-.47,23.9-23.8-4.89-2.41-20.1,1.99-17.25-6.59l9.52-28.68c1.04-3.14,3.63-4.93,6.97-4.91l30.9.21c1.88.01,3.8.59,4.5,1.54,1.02,1.36,1.99,4,1.3,6.09-4.51,13.72-8.36,27.19-14.23,40.22-8.77,19.47-26.95,19.1-45.61,15.92Z"/>
    <path class="cls-3" d="M1029.44,99.6c-12.78.57-24.5.08-36.71,0-2.46-.01-4.64-1.32-5.83-2.58-1.6-1.68-2.37-4.49-1.68-7.16,1.93-7.51,4.33-14.49,6.95-21.71.85-2.35,3.06-4.5,5.84-4.34,13.62.79,26.82-.94,40.37.57,3.97.44,5.3,7.35,4.61,10.46-1.54,6.86-3.92,12.35-5.78,18.89-.86,3.01-3.83,5.69-7.78,5.86Z"/>
    <path class="cls-2" d="M1003.23,252.03l14.57-48.74,22.16-68.46c2.35-7.27,2.19-14.26-1.02-21.65,17.32-7.83,15.58-37.39,19.89-34.24.41.3,1.17,1.34.83,2.24-2.24,5.77-3.78,11.13-5.72,17.1l-30.12,93-20.6,60.75Z"/>
    <path class="cls-2" d="M949.26,153.26c-3.53,10.23-5.54,19.73-9.95,29.86-2.6-7.81-4.26-14.27-8.75-21.26,10.75-9.26,17.04-21.56,21.87-34.71,3.31-.02,4.51,3.83,3.5,6.78l-6.66,19.33Z"/>
    <path class="cls-2" d="M1185.07,180.63c-3.27-6.17-6.44-11.2-12.07-16.36l29.7-24.82c-6.64,13.99-12.55,26.4-17.63,41.18Z"/>
    <path class="cls-2" d="M1296.77,215.88c-2.61,5.92-32.01,6.05-38.66,5.18-1.7-.22-1.98-4.2-.89-5.42l39.55.25Z"/>
    <g>
      <path class="cls-3" d="M1256.1,235.1c15.62,2.27,44.81,1.95,56.76-11.41,1.32-1.47,5.63-2.71,6.34-.69-1.62,10.3-5.29,20.04-8.98,29.67-3.21,8.35-8.96,14.14-17.53,17.02-22.14,7.44-59.95,7.32-82.67,1.24-16.27-4.36-26.33-17.97-23.64-35.62,4.48-29.33,13.65-58.14,28.05-84.2,8.68-15.71,21.59-28.45,38.52-34.32,23.57-8.18,72.24-11.16,89.2,8.91,14.88,17.62,2.75,49.18-7.06,66.84-3.19,5.73-9.23,8.31-15.6,8.33l-64.66.22c-2.28,0-6.41-.32-8.13,1.23-3.59,5.45-5.26,12.68-4.75,19.49.53,7.08,7.14,12.27,14.16,13.29ZM1294.97,173.67c3.5-9.26,6.53-23.09-3.81-26.65-17.71-6.11-30.1,11.82-34.49,26.98l38.3-.33Z"/>
      <path class="cls-1" d="M1294.97,173.67l-38.3.33c4.38-15.17,16.77-33.09,34.49-26.98,10.35,3.57,7.31,17.4,3.81,26.65Z"/>
    </g>
    <g>
      <path class="cls-3" d="M904.14,159.42c36.86,12.15,17.13,67.46.39,89.2-13.34,17.32-33.86,24.41-55.6,24.46l-99.77.26c-2.62,0-5.22-2.08-6.22-3.45-1.12-1.53-1.91-4.63-1.09-7.27l55.06-177.91c3.45-11.16-6.14-13.46-6.07-15.77.04-1.57.31-4.99,2.88-4.99l112.73.09c5.73,0,11.01,1.57,15.97,3.43,13.1,4.91,20.35,16.9,20.02,31.04-.36,16.14-5.63,31.94-15.09,45.01-5.71,7.89-13.95,11.46-23.2,15.91ZM888.02,112.29c-.22-5.63-3.79-10.58-9.61-11.19-9.12-.97-18.21-.67-27.44.12l-12.33,41.82c9.34.83,18.46,1.23,27.61.19,15.63-1.79,22.28-17.57,21.77-30.94ZM856.05,226.2c8.57-10.98,11.6-24.83,10.66-37.92-1.04-5.59-4.43-9.83-10.23-10.15-9.93-.54-19.51-.3-29.71.48l-16.83,55.33c13.53-.55,37.45,3.35,46.11-7.75Z"/>
      <path class="cls-1" d="M856.05,226.2c-8.66,11.1-32.59,7.2-46.11,7.75l16.83-55.33c10.2-.79,19.78-1.03,29.71-.48,5.8.32,9.19,4.56,10.23,10.15.94,13.09-2.09,26.94-10.66,37.92ZM844.78,215.99c5.36-6.69,7.43-15.27,8.25-22.89-5.94-.64-10.42-.51-15.57.1l-7.52,25.95c4.39.59,11.26,1.3,14.84-3.17Z"/>
      <path class="cls-1" d="M888.02,112.29c.51,13.37-6.14,29.15-21.77,30.94-9.15,1.05-18.27.65-27.61-.19l12.33-41.82c9.23-.79,18.32-1.09,27.44-.12,5.82.62,9.39,5.57,9.61,11.19ZM871.31,121.99c.79-2.15,1.51-4.04,1.94-6.34-3.87-.59-7.26-.48-11.28.04-1.51,4.07-2.63,7.89-3.5,12.92,5.39,1.58,10.82-1.12,12.83-6.62Z"/>
      <path class="cls-2" d="M844.78,215.99c-3.58,4.47-10.45,3.76-14.84,3.17l7.52-25.95c5.15-.61,9.63-.74,15.57-.1-.82,7.62-2.88,16.2-8.25,22.89Z"/>
      <path class="cls-2" d="M871.31,121.99c-2.01,5.5-7.44,8.19-12.83,6.62.87-5.03,1.99-8.85,3.5-12.92,4.01-.52,7.4-.63,11.28-.04-.43,2.29-1.15,4.19-1.94,6.34Z"/>
    </g>
  </g>
  <g>
    <path class="cls-2" d="M724.25,173.49c-7.24,48.33-24.22,100.38-73.45,120.15-28.8,11.56-60.18,12.65-90.02,4.68-14.14-3.78-25.94-11.28-35.98-21.35-10.02,36.33-31.67,60.75-68.53,69.2-22.98,6.95-74.31,6.38-96.47.78-21.16-5.36-34.38-23.81-33.54-45.32l-41.05-.58c-13.56-.19-24.94-7.23-33-18-18.43,14.04-42.1,18.41-64.18,18.42l-94.96.03c-21.05,0-42.98-20.73-36.7-42.63l43.78-152.58c2.19-7.64,5.05-13.98,6.31-21.73-5.34-11.48-5.41-25.01,1.12-36.09,4.59-7.79,13.51-13.09,23.01-13.07l111.65.27c20.05.05,47.3,12.42,56.69,31.91,2.21-4.32,2.91-8.29,4.59-12.49,4.69-11.74,15.26-19.68,28.21-19.67l38.32.03c20.74.02,36.35,16.86,36.86,37.47.23,9.25-2.96,17.25-5.23,27.3,17.36-9.07,34.84-12.47,53.86-14.31,25.48-.22,50.49-.79,75.9.41,13.06.62,23.65,8.63,29.89,19.63,15.05-11.71,31.71-18.5,49.98-21.14,22.83-3.31,45.7-4.24,67.8,3.68,37.69,13.5,50.81,47.15,45.14,85ZM711.95,150.48c-.69-21.03-12.47-38.6-31.81-47.13-23.48-10.37-59.93-8.65-84.49-.84-19.02,6.04-33.41,18.06-44.42,34.77,1.42-9.64,3.42-17.49-1.87-25.67-3.47-5.36-10.31-11.98-18.74-11.95l-76.07.25c-12.34.04-24.03,2.95-35.36,7.12-19.17,7.06-32.87,21.32-43.46,38.57l3.08-16.26c1.1-5.83.07-11.23-2.35-16.75,11.84-6.1,14.18-20.34,17.07-33.81,2.54-11.84-4.66-27.54-18.12-28.98-15.67-1.67-31.21-.76-46.88-.28-13.18.41-15.67,23.06-18.25,29.55-2.63,6.64-3.01,13.04-.8,20.12-5.61-.12-10.23,1.5-14.81,3.57-1.16-13.32-3.16-26.24-12.33-36.12-9.11-9.83-22.79-16.87-36.94-16.96l-110.48-.67c-5.96-.04-10.52.67-14.42,4.52-7.52,7.41-5.62,19.58-.23,28.33.46,8.82-4.29,17.52-6.82,26.27l-44.25,153.19c-3.62,12.53,9.75,26.39,21.99,26.35l106.1-.32c23.58-.07,46.18-10.26,61.4-29.33.57,6.03.46,11.91,4.08,17.07,5.01,7.15,13.36,12.25,22.42,12.3l46.47.28c4.06.02,7.22-2.42,10.96-4.32.01,6.44-2.94,11.28-3.57,17.17-1.93,18.24,11.74,32.83,29.7,34.67,18.44,1.89,36.37,3.52,54.91,2.07,14.71-1.15,29.04-3.05,42.73-8.43,22.16-8.72,36.85-27.31,44.15-49.59,4.65-14.2,6.92-27.98,12.6-42.42,3.3,40.45,35.32,51.46,69.26,52.6,42.79,1.44,78.87-12.02,99.29-51.39,12.06-23.26,21.11-60.98,20.24-87.57Z"/>
    <path class="cls-1" d="M711.95,150.48c.88,26.59-8.17,64.3-20.24,87.57-20.42,39.37-56.5,52.83-99.29,51.39-33.94-1.14-65.96-12.15-69.26-52.6-5.69,14.44-7.95,28.22-12.6,42.42-7.3,22.28-21.99,40.87-44.15,49.59-13.7,5.39-28.03,7.28-42.73,8.43-18.54,1.45-36.47-.18-54.91-2.07-17.96-1.84-31.63-16.43-29.7-34.67.62-5.89,3.58-10.72,3.57-17.17-3.74,1.9-6.91,4.34-10.96,4.32l-46.47-.28c-9.07-.06-17.41-5.15-22.42-12.3-3.62-5.16-3.51-11.03-4.08-17.07-15.22,19.06-37.82,29.25-61.4,29.33l-106.1.32c-12.23.04-25.6-13.82-21.99-26.35l44.25-153.19c2.53-8.75,7.28-17.45,6.82-26.27-5.4-8.76-7.29-20.92.23-28.33,3.9-3.85,8.46-4.56,14.42-4.52l110.48.67c14.16.09,27.83,7.13,36.94,16.96,9.16,9.88,11.17,22.8,12.33,36.12,4.58-2.07,9.2-3.7,14.81-3.57-2.21-7.08-1.84-13.48.8-20.12,2.57-6.49,5.06-29.15,18.25-29.55,15.67-.48,31.21-1.39,46.88.28,13.46,1.44,20.66,17.14,18.12,28.98-2.89,13.47-5.22,27.71-17.07,33.81,2.41,5.51,3.45,10.92,2.35,16.75l-3.08,16.26c10.59-17.24,24.29-31.51,43.46-38.57,11.33-4.17,23.02-7.08,35.36-7.12l76.07-.25c8.43-.03,15.27,6.59,18.74,11.95,5.29,8.18,3.29,16.02,1.87,25.67,11.02-16.72,25.4-28.73,44.42-34.77,24.55-7.8,61-9.52,84.49.84,19.34,8.53,31.12,26.11,31.81,47.13ZM250.12,243.77c13.81-22.6,28.3-73.74-7.17-84.31,8.91-4.5,16.98-8.11,22.48-15.79,8.89-12.41,13.69-26.71,14.56-42.11,1.1-19.44-12.18-37-32.83-37.09l-115.29-.47c-1.77,0-2.15,4.85-1.45,5.98.91,1.47,8.65,3.45,5.09,15.66l-51.73,177.61c-1.42,4.86,2.41,10.01,7.66,10l97.5-.18c25.01-.05,47.34-6.66,61.18-29.3ZM366.27,99.67c4.33,0,7.33-3.15,8.17-6.58,1.58-6.44,3.81-11.83,4.94-18.44.59-3.44-.81-10.26-5.1-10.32l-39.37-.48c-2.85-.03-4.95,1.83-5.82,4.32-2.52,7.26-4.92,14.32-6.64,21.85-.6,2.62.22,5.23,1.61,6.93s3.8,2.68,6.55,2.68l35.66.03ZM692.94,189.04c3.89-17.55,9.8-43.15-1.69-59.56-17.03-24.32-65.55-21.09-91.09-12.91-32.07,10.26-44.9,41.71-53.57,71-4.88,16.49-8.35,32.97-8.3,50.15.08,26.79,22.91,34.97,45.76,36.58,66.19,4.67,95.19-23.47,108.89-85.26ZM328.35,272.58c2.66,0,4.35-1.61,5-3.79,1.36-4.57-7.3-4.37-3.92-16.45l35.28-126.16c1.7-6.09-2.46-12.21-8.43-12.21l-48.04-.05c-3.1,0-4.5,3.67-3.58,6.26,4.19,1.46,6.58,5.52,5.34,10.01l-17.88,64.83-18.15,63.91c-.94,3.32-.74,7.03,1.14,9.4,1.63,2.05,4.97,4.11,8.31,4.12l44.92.13ZM364.37,271.38c-.91.3-2.42,1.48-2.84,2.88-2.77,9.37-5.84,18.41-7.81,28.02-1.8,8.79,4.47,16.37,13.3,17.64,23.64,3.39,47.21,4.08,70.94.85,30.39-4.14,51.05-19.3,59.57-49.5l40.66-144.13c.93-3.3.38-7.27-1.4-9.51-1.25-1.57-4.01-3.63-7.1-3.63h-63.8c-57.22-.02-79.19,28.63-92.39,80.58-5.52,21.73-12.91,57.62,14.99,66.6,14.96,4.82,31.36,3.42,45.32-4.25,8.12-4.46,13.04-11.38,19.26-18.38-3.38,19.09-7.86,39.56-28.7,43.94-15.65,3.29-31.62,3.4-46.95-1.1-5.15-1.51-9.62-11.11-13.04-10ZM279.36,184.63l14.5-49.59c1.04-3.57.45-7.59-3.41-8.58-4.34,14.03-10.78,25.59-21.1,35.33,5.26,7.39,7.32,14.44,10.01,22.84ZM348.34,265.31c3.6-4.59,7.35-6.82,12.81-9.25-6.74-10.75-6.48-21.85-7.54-33.43l-9.58,33.08,4.32,9.6Z"/>
    <path class="cls-3" d="M250.12,243.77c-13.84,22.65-36.17,29.26-61.18,29.3l-97.5.18c-5.24,0-9.07-5.14-7.66-10l51.73-177.61c3.56-12.21-4.18-14.19-5.09-15.66-.71-1.14-.32-5.99,1.45-5.98l115.29.47c20.64.08,33.92,17.65,32.83,37.09-.87,15.4-5.67,29.7-14.56,42.11-5.5,7.69-13.57,11.29-22.48,15.79,35.48,10.57,20.98,61.72,7.17,84.31ZM223.57,105.13c-6.02-7.39-24.48-4.16-34.08-3.69l-11.77,41.76c9.44.72,18.06,1.01,26.68.19,21.49-2.05,25.59-30.39,19.18-38.26ZM202.84,216.06c2.9-8.54,5.48-16.54,4.59-25.01-.78-7.45-5.5-12.62-13.03-12.92-9.22-.37-18.1-.33-27.73.6l-15.7,55.22c20.95-1.05,43.77,5.97,51.87-17.89Z"/>
    <path class="cls-3" d="M328.35,272.58l-44.92-.13c-3.35,0-6.68-2.07-8.31-4.12-1.88-2.37-2.08-6.08-1.14-9.4l18.15-63.91,17.88-64.83c1.24-4.49-1.15-8.55-5.34-10.01-.92-2.59.48-6.26,3.58-6.26l48.04.05c5.96,0,10.13,6.12,8.43,12.21l-35.28,126.16c-3.38,12.08,5.28,11.89,3.92,16.45-.65,2.17-2.33,3.79-5,3.79Z"/>
    <path class="cls-3" d="M366.27,99.67l-35.66-.03c-2.75,0-5.21-1.06-6.55-2.68s-2.21-4.31-1.61-6.93c1.73-7.53,4.13-14.6,6.64-21.85.87-2.49,2.97-4.36,5.82-4.32l39.37.48c4.28.05,5.68,6.87,5.1,10.32-1.13,6.61-3.36,12.01-4.94,18.44-.84,3.43-3.84,6.59-8.17,6.58Z"/>
    <path class="cls-2" d="M279.36,184.63c-2.7-8.4-4.75-15.45-10.01-22.84,10.31-9.75,16.75-21.3,21.1-35.33,3.86.99,4.46,5.01,3.41,8.58l-14.5,49.59Z"/>
    <path class="cls-2" d="M348.34,265.31l-4.32-9.6,9.58-33.08c1.07,11.58.8,22.68,7.54,33.43-5.46,2.43-9.21,4.66-12.81,9.25Z"/>
    <path class="cls-1" d="M202.84,216.06c-8.09,23.87-30.92,16.85-51.87,17.89l15.7-55.22c9.63-.93,18.51-.97,27.73-.6,7.52.3,12.24,5.47,13.03,12.92.89,8.47-1.69,16.47-4.59,25.01ZM185.82,215.99c5-6.71,7.02-14.95,7.6-22.75-5.77-.6-10.3-.46-15.77-.16l-6.88,25.97c4.52.72,11.66,1.48,15.05-3.07Z"/>
    <path class="cls-1" d="M223.57,105.13c6.41,7.87,2.31,36.21-19.18,38.26-8.62.82-17.24.53-26.68-.19l11.77-41.76c9.61-.47,28.07-3.7,34.08,3.69ZM211.33,116.03c-3.97-.83-7.24-.85-10.87-.1-1.21,4.58-2.88,8.45-2.9,13.04,3.99.61,7.56-.2,10.08-2.93,2.14-2.31,3.65-5.59,3.69-10.01Z"/>
    <path class="cls-2" d="M185.82,215.99c-3.39,4.55-10.54,3.79-15.05,3.07l6.88-25.97c5.47-.31,9.99-.45,15.77.16-.58,7.8-2.6,16.04-7.6,22.75Z"/>
    <path class="cls-2" d="M211.33,116.03c-.04,4.42-1.55,7.7-3.69,10.01-2.53,2.73-6.09,3.55-10.08,2.93.02-4.59,1.7-8.46,2.9-13.04,3.62-.75,6.9-.73,10.87.1Z"/>
    <g>
      <path class="cls-3" d="M692.94,189.04c-13.7,61.79-42.7,89.94-108.89,85.26-22.85-1.61-45.68-9.79-45.76-36.58-.05-17.18,3.42-33.65,8.3-50.15,8.67-29.29,21.5-60.74,53.57-71,25.54-8.18,74.06-11.41,91.09,12.91,11.49,16.41,5.58,42.01,1.69,59.56ZM601.03,236.13c13.49,3.7,24.57-5.79,29.14-16.9,7.11-17.3,12.22-34.85,14.94-53.33.91-6.21-.59-13.96-6-17.1-9.29-5.39-20.33-1.21-26.48,6.8-6.95,9.05-10.68,19.02-13.84,29.94-3.79,13.1-15.53,45.7,2.24,50.58Z"/>
      <path class="cls-1" d="M601.03,236.13c-17.77-4.88-6.03-37.49-2.24-50.58,3.16-10.92,6.89-20.9,13.84-29.94,6.15-8.01,17.19-12.2,26.48-6.8,5.41,3.14,6.92,10.89,6,17.1-2.72,18.48-7.83,36.03-14.94,53.33-4.57,11.11-15.65,20.61-29.14,16.9ZM607.23,222.09c13.19-3.29,22.77-49.62,23.35-60.49-11.41-2.15-21.75,41.66-23.2,48.39-.88,4.06-2.19,8.42-.15,12.1Z"/>
      <path class="cls-2" d="M607.23,222.09c-2.04-3.69-.73-8.04.15-12.1,1.45-6.73,11.79-50.54,23.2-48.39-.59,10.87-10.16,57.2-23.35,60.49Z"/>
    </g>
    <g>
      <path class="cls-3" d="M364.37,271.38c3.42-1.11,7.9,8.49,13.04,10,15.33,4.5,31.31,4.39,46.95,1.1,20.84-4.38,25.32-24.85,28.7-43.94-6.22,7-11.14,13.92-19.26,18.38-13.95,7.66-30.35,9.06-45.32,4.25-27.9-8.98-20.51-44.87-14.99-66.6,13.2-51.94,35.17-80.6,92.39-80.59h63.8c3.09.01,5.85,2.08,7.1,3.65,1.78,2.24,2.34,6.21,1.4,9.51l-40.66,144.13c-8.52,30.2-29.17,45.36-59.57,49.5-23.73,3.23-47.31,2.54-70.94-.85-8.82-1.27-15.09-8.84-13.3-17.64,1.96-9.62,5.03-18.65,7.81-28.02.42-1.41,1.93-2.59,2.84-2.88ZM455.05,216.91c4.52-5.44,7.46-11.27,9.27-17.82l13.38-48.37c-21.56-1.78-33.56,1.06-43.72,20.01-5.41,12.21-9.36,24.82-10.72,38.22-.76,7.55,4.21,14.03,11.25,15.3,7.72,1.39,14.97-1.56,20.55-7.35Z"/>
      <path class="cls-1" d="M455.05,216.91c-5.57,5.8-12.83,8.74-20.55,7.35-7.04-1.27-12.01-7.75-11.25-15.3,1.36-13.41,5.31-26.01,10.72-38.22,10.16-18.96,22.16-21.79,43.72-20.01l-13.38,48.37c-1.81,6.54-4.75,12.37-9.27,17.82ZM457.68,167.78c-9.19-2.45-20.2,34.96-19.94,41.35,11.62,2.62,17.04-33.26,19.94-41.35Z"/>
      <path class="cls-2" d="M457.68,167.78c-2.91,8.09-8.32,43.97-19.94,41.35-.26-6.38,10.76-43.8,19.94-41.35Z"/>
    </g>
  </g>
</svg>